<svg width="139" height="177" viewBox="0 0 139 177" fill="none" xmlns="http://www.w3.org/2000/svg">
<path fill-rule="evenodd" clip-rule="evenodd" d="M90.5 147H74C77.6372 135.637 81.2701 131.114 90.5 126V147ZM79.5 143.5H87.5V131.5C82.5419 135.243 80.7685 137.859 79.5 143.5Z" fill="black"/>
<path d="M90.5 147C84.0563 147 80.4437 147 74 147M90.5 147V126C81.2701 131.114 77.6372 135.637 74 147M90.5 147H74M87.5 143.5H79.5C80.7685 137.859 82.5419 135.243 87.5 131.5V143.5Z" stroke="black"/>
<path d="M62.5 126V146H67.5V140L79 126H62.5Z" fill="black" stroke="black"/>
<path d="M95.5 126V146.5H111.5C108.748 139.265 106.271 136.255 99.5 133.5V126H95.5Z" fill="black"/>
<path d="M113 146.5H117V126H113V146.5Z" fill="black"/>
<path d="M121.5 126V146.5H126V142L134.5 133.5V146.5H138.5V127H134.5L126 135V126H121.5Z" fill="black"/>
<path d="M136.5 117.5L129 122V127L138.5 122V117.5H136.5Z" fill="black"/>
<path d="M95.5 126V146.5H111.5C108.748 139.265 106.271 136.255 99.5 133.5V126H95.5Z" stroke="black"/>
<path d="M113 146.5H117V126H113V146.5Z" stroke="black"/>
<path d="M121.5 126V146.5H126V142L134.5 133.5V146.5H138.5V127H134.5L126 135V126H121.5Z" stroke="black"/>
<path d="M136.5 117.5L129 122V127L138.5 122V117.5H136.5Z" stroke="black"/>
<path d="M35 158.5V154.5H52.5L46.5 165L50 170.5L52.5 176H35V170.5L43.5 171L39 165L44.5 158.5H35Z" fill="black"/>
<path d="M59 176H54.5V154.5H59V162H66.5V154.5H71.5V176H66.5V166.5H59V176Z" fill="black"/>
<path fill-rule="evenodd" clip-rule="evenodd" d="M80 171V176H74C76.8593 165.273 80.1483 160.64 88.5 154.5H91V176H86V171H80ZM81.5 167.5C82.5 167.167 85 166.7 87 167.5V161C83.5851 162.831 82.2043 164.151 81.5 167.5Z" fill="black"/>
<path d="M100 166.5V176H95V154.5H100V162L107 154.5H111.5V158.5L105.5 163.5L114.5 176H107L100 166.5Z" fill="black"/>
<path d="M35 158.5V154.5H52.5L46.5 165L50 170.5L52.5 176H35V170.5L43.5 171L39 165L44.5 158.5H35Z" stroke="black"/>
<path d="M59 176H54.5V154.5H59V162H66.5V154.5H71.5V176H66.5V166.5H59V176Z" stroke="black"/>
<path fill-rule="evenodd" clip-rule="evenodd" d="M80 171V176H74C76.8593 165.273 80.1483 160.64 88.5 154.5H91V176H86V171H80ZM81.5 167.5C82.5 167.167 85 166.7 87 167.5V161C83.5851 162.831 82.2043 164.151 81.5 167.5Z" stroke="black"/>
<path d="M100 166.5V176H95V154.5H100V162L107 154.5H111.5V158.5L105.5 163.5L114.5 176H107L100 166.5Z" stroke="black"/>
<path d="M99.5 143V137L105.5 143H99.5Z" stroke="black"/>
<path d="M42 126.5C42 128.1 42.6667 133.5 43 136L58 147V141.5L51.5 137.5H56.5V132.5H48V130H58V126.5H42Z" fill="black" stroke="black"/>
<path d="M72.5 69H91L72.5 96V69Z" fill="white" stroke="white"/>
<path d="M56 19.5H36.5V30.5L54 71L71.5 96V69H56V19.5Z" fill="black"/>
<path d="M72.5 29V10.5H90L110 15L107.5 29H72.5Z" fill="white"/>
<path d="M71.5 55.5V41.5H104L98 55.5H71.5Z" fill="white"/>
<path d="M41 67C51.1183 85.1865 57.8673 94.5404 71.5 110L71.99 109.19C62.2429 91.7783 56.9679 81.9493 44.5 65.5L32 28L31 11.5L48.5 7.5H87.5L114 11.5L111 30L97.5 67C85.9571 82.7363 80.9349 92.2368 71.99 109.19L72.5 110C87.0401 94.3962 94.8769 85.4619 104.5 67C111.389 53.0952 114.754 45.1339 118 30L120.5 9L87.5 1H48.5L25.5 7.5L26.5 28C30.9668 44.0589 33.2747 53.1972 41 67Z" fill="white"/>
<path d="M71.99 109.19L71.5 110C57.8673 94.5404 51.1183 85.1865 41 67C33.2747 53.1972 30.9668 44.0589 26.5 28L25.5 7.5L48.5 1H87.5L120.5 9L118 30C114.754 45.1339 111.389 53.0952 104.5 67C94.8769 85.4619 87.0401 94.3962 72.5 110L71.99 109.19ZM71.99 109.19C62.2429 91.7783 56.9679 81.9493 44.5 65.5L32 28L31 11.5L48.5 7.5H87.5L114 11.5L111 30L97.5 67C85.9571 82.7363 80.9349 92.2368 71.99 109.19Z" stroke="white"/>
<path d="M13 147H8.5V131H1V125.5H19.5V131H13V147Z" fill="black"/>
<path fill-rule="evenodd" clip-rule="evenodd" d="M22.5 147V125.5H39.5L34.5 135L44 147H22.5ZM27.5 129.5V135L33 129.5H27.5ZM31.5 137L27.5 140V142.5H37L31.5 137Z" fill="black"/>
<path d="M13 147H8.5V131H1V125.5H19.5V131H13V147Z" stroke="black"/>
<path fill-rule="evenodd" clip-rule="evenodd" d="M22.5 147V125.5H39.5L34.5 135L44 147H22.5ZM27.5 129.5V135L33 129.5H27.5ZM31.5 137L27.5 140V142.5H37L31.5 137Z" stroke="black"/>
</svg>
